HIERARCHY
ROOT joint_Root
{
	OFFSET 0.0 0.0 0.0
	CHANNELS 6 Xposition Yposition Zposition Zrotation Xrotation Yrotation 
	JOINT Hips
	{
		OFFSET 4.5925 91.4895 -427.239
		CHANNELS 6 Xposition Yposition Zposition Zrotation Xrotation Yrotation 
		JOINT Spine
		{
			OFFSET 15.7357 0.0 0.0
			CHANNELS 6 Xposition Yposition Zposition Zrotation Xrotation Yrotation 
			JOINT Chest
			{
				OFFSET 8.98455 -0.406207 0.0
				CHANNELS 6 Xposition Yposition Zposition Zrotation Xrotation Yrotation 
				JOINT Neck
				{
					OFFSET 16.3773 0.0 0.0
					CHANNELS 6 Xposition Yposition Zposition Zrotation Xrotation Yrotation 
					JOINT Head
					{
						OFFSET 6.45672 0.0 0.0
						CHANNELS 6 Xposition Yposition Zposition Zrotation Xrotation Yrotation 
						End Site
						{
							OFFSET 0.0 0.0 0.0
						}
					}
				}
				JOINT Shoulder_L
				{
					OFFSET 12.9942 -0.242716 4.98039
					CHANNELS 6 Xposition Yposition Zposition Zrotation Xrotation Yrotation 
					JOINT UpperArm_L
					{
						OFFSET 5.34809 0.0 0.0
						CHANNELS 6 Xposition Yposition Zposition Zrotation Xrotation Yrotation 
						JOINT LowerArm_L
						{
							OFFSET 24.3286 1.87007e-05 0.0
							CHANNELS 6 Xposition Yposition Zposition Zrotation Xrotation Yrotation 
							JOINT Hand_L
							{
								OFFSET 22.2916 0.0 0.0
								CHANNELS 6 Xposition Yposition Zposition Zrotation Xrotation Yrotation 
								End Site
								{
									OFFSET 0.0 0.0 0.0
								}
							}
						}
					}
				}
				JOINT Shoulder_R
				{
					OFFSET 12.9945 -0.242716 -4.98039
					CHANNELS 6 Xposition Yposition Zposition Zrotation Xrotation Yrotation 
					JOINT UpperArm_R
					{
						OFFSET -5.34813 0.0 0.0
						CHANNELS 6 Xposition Yposition Zposition Zrotation Xrotation Yrotation 
						JOINT LowerArm_R
						{
							OFFSET -24.3289 0.000322201 0.0
							CHANNELS 6 Xposition Yposition Zposition Zrotation Xrotation Yrotation 
							JOINT Hand_R
							{
								OFFSET -22.2915 -0.000108084 0.0
								CHANNELS 6 Xposition Yposition Zposition Zrotation Xrotation Yrotation 
								End Site
								{
									OFFSET 0.0 0.0 0.0
								}
							}
						}
					}
				}
			}
		}
		JOINT UpperLeg_L
		{
			OFFSET -2.19248 -6.46944 0.0
			CHANNELS 6 Xposition Yposition Zposition Zrotation Xrotation Yrotation 
			JOINT LowerLeg_L
			{
				OFFSET 39.0811 0.0 -1.23785e-05
				CHANNELS 6 Xposition Yposition Zposition Zrotation Xrotation Yrotation 
				JOINT Foot_L
				{
					OFFSET 40.9854 0.0 -1.26872e-05
					CHANNELS 6 Xposition Yposition Zposition Zrotation Xrotation Yrotation 
					JOINT Toes_L
					{
						OFFSET 11.7543 0.0 0.0
						CHANNELS 6 Xposition Yposition Zposition Zrotation Xrotation Yrotation 
						End Site
						{
							OFFSET 0.0 0.0 0.0
						}
					}
				}
			}
		}
		JOINT UpperLeg_R
		{
			OFFSET -2.19251 6.46944 0.0
			CHANNELS 6 Xposition Yposition Zposition Zrotation Xrotation Yrotation 
			JOINT LowerLeg_R
			{
				OFFSET -39.0811 -0.00228153 -0.0401928
				CHANNELS 6 Xposition Yposition Zposition Zrotation Xrotation Yrotation 
				JOINT Foot_R
				{
					OFFSET -40.9854 0.0 0.0
					CHANNELS 6 Xposition Yposition Zposition Zrotation Xrotation Yrotation 
					JOINT Toes_R
					{
						OFFSET -11.7543 0.0 0.0
						CHANNELS 6 Xposition Yposition Zposition Zrotation Xrotation Yrotation 
						End Site
						{
							OFFSET 0.0 0.0 0.0
						}
					}
				}
			}
		}
	}
}
MOTION
Frames:	6
Frame Time:	0.0333333
0.000000 0.000000 0.000000 0.000000 0.000000 -0.000000 -5.946920 84.083000 44.278200 -92.640300 1.315600 -177.122000 15.735700 0.000005 -0.000001 85.497600 82.987200 -87.124500 8.984550 -0.406207 -0.000000 6.203950 -1.075780 -3.191980 16.377300 -0.000001 -0.000001 -0.859293 -3.190020 -0.134767 6.456720 -0.000001 -0.000000 2.414940 -3.420540 5.653310 12.994200 -0.242716 4.980390 -90.634700 2.163320 -73.647200 5.348090 -0.000007 -0.000001 -69.124200 26.757300 -27.924300 24.328600 0.000019 0.000005 8.893660 -0.234068 -91.500700 22.291600 -0.000001 0.000005 4.254410 5.499070 -6.495450 12.994500 -0.242716 -4.980390 87.747200 11.235900 -78.585100 -5.348130 -0.000001 -0.000004 -67.239500 34.214800 18.941700 -24.328900 0.000322 -0.000009 -21.354000 -13.531300 -59.100800 -22.291500 -0.000108 -0.000004 27.195200 5.673960 -18.050400 -2.192480 -6.469440 -0.000000 176.657000 -8.894490 -23.287500 39.081100 -0.000007 -0.000012 -0.516412 0.342881 56.418200 40.985400 -0.000006 -0.000013 1.972950 -1.132760 -80.830500 11.754300 -0.000000 0.000003 -0.000239 -0.002152 -16.658300 -2.192510 6.469440 -0.000001 170.090000 7.804790 166.115000 -39.081100 -0.002282 -0.040193 0.239832 -0.036592 81.224500 -40.985400 0.000008 0.000006 8.642430 1.076140 -37.649400 -11.754300 -0.000006 -0.000006 -0.022322 -0.179824 -23.924700
0.000000 0.000000 0.000000 0.000000 0.000000 -0.000000 -5.649780 86.207800 39.229800 -91.129400 -0.485964 -177.134000 15.735700 0.000005 -0.000001 71.324500 82.652000 -72.139200 8.984550 -0.406207 -0.000000 6.139210 -4.681130 -1.377100 16.377300 -0.000001 -0.000001 -0.621655 -2.363850 -0.298680 6.456720 -0.000001 -0.000000 1.864670 -0.349654 3.968950 12.994200 -0.242716 4.980390 -89.907800 -0.326341 -74.214400 5.348090 -0.000007 -0.000001 -64.160800 26.675900 -36.571400 24.328600 0.000019 0.000005 5.877640 -1.027960 -99.886400 22.291600 -0.000001 0.000005 2.418770 5.490460 -6.153030 12.994500 -0.242716 -4.980390 87.851200 8.711370 -76.085000 -5.348130 -0.000001 -0.000004 -66.855800 38.200500 26.164100 -24.328900 0.000322 -0.000009 -19.809800 -10.745100 -62.633700 -22.291500 -0.000108 -0.000004 24.632700 5.673000 -17.880400 -2.192480 -6.469440 -0.000000 178.954000 -7.397450 -15.534400 39.081100 -0.000007 -0.000012 -0.463303 0.404583 48.871700 40.985400 -0.000006 -0.000013 1.454820 -0.351762 -80.871200 11.754300 -0.000000 0.000003 -0.000186 -0.001744 -16.643500 -2.192510 6.469440 -0.000001 173.664000 8.758940 160.368000 -39.081100 -0.002282 -0.040193 0.192549 -0.029943 81.032200 -40.985400 0.000008 0.000006 8.024700 -0.346361 -43.152300 -11.754300 -0.000006 -0.000006 -0.024010 -0.188564 -24.285500
0.000000 0.000000 0.000000 0.000000 0.000000 -0.000000 -5.237260 88.624300 34.093300 -89.373800 -0.514567 -177.306000 15.735700 0.000005 -0.000001 62.944100 82.362500 -62.943400 8.984550 -0.406207 -0.000000 5.870870 -6.930160 0.357113 16.377300 -0.000001 -0.000001 -0.145766 -1.701280 -0.163943 6.456720 -0.000001 -0.000000 1.917120 2.083010 2.838120 12.994200 -0.242716 4.980390 -89.400200 -2.105690 -74.097000 5.348090 -0.000007 -0.000001 -59.582700 24.734900 -41.954600 24.328600 0.000019 0.000005 5.376240 -1.657510 -107.086000 22.291600 -0.000001 0.000005 0.253629 5.474120 -5.524230 12.994500 -0.242716 -4.980390 88.373400 5.730560 -74.124200 -5.348130 -0.000001 -0.000004 -67.137400 40.490000 32.163800 -24.328900 0.000322 -0.000009 -18.878800 -8.348130 -66.994800 -22.291500 -0.000108 -0.000004 23.054800 5.668880 -17.209000 -2.192480 -6.469440 -0.000000 -178.406000 -7.096550 -6.107690 39.081100 -0.000007 -0.000012 -0.355783 0.465371 37.399200 40.985400 -0.000006 -0.000013 0.605529 0.093743 -78.916800 11.754300 -0.000000 0.000003 -0.000116 -0.001169 -16.622300 -2.192510 6.469440 -0.000001 177.426000 8.977590 156.444000 -39.081100 -0.002282 -0.040193 0.124387 -0.031677 75.371900 -40.985400 0.000008 0.000006 7.626860 -1.765440 -49.436800 -11.754300 -0.000006 -0.000006 -0.022918 -0.182947 -24.053600
0.000000 0.000000 0.000000 0.000000 0.000000 -0.000000 -4.745260 90.678300 29.405100 -86.969300 -0.698106 -179.635000 15.735700 0.000005 -0.000001 53.839200 82.497300 -52.681300 8.984550 -0.406207 -0.000000 4.483410 -8.872300 2.664740 16.377300 -0.000001 -0.000001 0.034492 -0.916947 -0.033798 6.456720 -0.000001 -0.000000 2.161010 3.857350 2.357580 12.994200 -0.242716 4.980390 -88.807200 -4.019500 -73.456200 5.348090 -0.000007 -0.000001 -57.164300 22.845100 -44.893500 24.328600 0.000019 0.000005 4.555720 -1.897430 -112.567000 22.291600 -0.000001 0.000005 -0.575745 5.444570 -4.446510 12.994500 -0.242716 -4.980390 89.286800 2.318630 -72.896700 -5.348130 -0.000001 -0.000004 -67.443300 40.943100 36.470500 -24.328900 0.000322 -0.000009 -16.548800 -5.695520 -71.530100 -22.291500 -0.000108 -0.000004 21.689300 5.664880 -16.653400 -2.192480 -6.469440 -0.000000 -175.994000 -6.754020 0.240374 39.081100 -0.000007 -0.000012 0.007646 -0.015700 25.965300 40.985400 -0.000006 -0.000013 3.517680 -0.750639 -74.199800 11.754300 -0.000000 0.000003 -1.667980 -2.084660 -17.348800 -2.192510 6.469440 -0.000001 -178.092000 9.894110 152.016000 -39.081100 -0.002282 -0.040193 0.080277 -0.035384 65.351800 -40.985400 0.000008 0.000006 6.174780 -1.500170 -54.107500 -11.754300 -0.000006 -0.000006 -0.024792 -0.192517 -24.448900
0.000000 0.000000 0.000000 0.000000 0.000000 -0.000000 -4.378550 92.039600 24.924100 -85.857200 -0.781895 178.049000 15.735700 0.000005 -0.000001 45.812500 82.505100 -43.961200 8.984550 -0.406207 -0.000000 3.202560 -10.510900 4.001430 16.377300 -0.000001 -0.000001 0.112460 -0.172368 0.233875 6.456720 -0.000001 -0.000000 2.231680 5.221580 2.384240 12.994200 -0.242716 4.980390 -88.118300 -6.062890 -72.721800 5.348090 -0.000007 -0.000001 -55.614600 21.069200 -46.757500 24.328600 0.000019 0.000005 3.751090 -1.876840 -116.545000 22.291600 -0.000001 0.000005 -0.319494 5.423590 -3.720420 12.994500 -0.242716 -4.980390 90.368800 -1.153910 -72.275100 -5.348130 -0.000001 -0.000004 -68.144600 40.514200 39.085000 -24.328900 0.000322 -0.000009 -14.113700 -3.669910 -75.716100 -22.291500 -0.000108 -0.000004 20.805300 5.656910 -15.713400 -2.192480 -6.469440 -0.000000 -174.101000 -8.625230 4.600700 39.081100 -0.000007 -0.000012 -0.003517 0.011031 17.680000 40.985400 -0.000006 -0.000013 3.657650 1.380040 -67.861900 11.754300 -0.000000 0.000003 -1.058650 -1.265260 -18.971400 -2.192510 6.469440 -0.000001 -175.212000 11.194200 149.468000 -39.081100 -0.002282 -0.040193 0.042595 -0.030926 51.838800 -40.985400 0.000008 0.000006 4.513250 2.152680 -57.106700 -11.754300 -0.000006 -0.000006 -0.025338 -0.195244 -24.561700
0.000000 0.000000 0.000000 0.000000 0.000000 -0.000000 -4.146330 92.330900 20.337800 -86.265200 -0.388295 176.923000 15.735700 0.000005 -0.000001 40.837600 82.309700 -38.998800 8.984550 -0.406207 -0.000000 2.531900 -11.711400 3.943440 16.377300 -0.000001 -0.000001 0.217271 0.535554 0.557592 6.456720 -0.000001 -0.000000 1.996540 6.043200 3.590630 12.994200 -0.242716 4.980390 -87.343500 -8.201900 -71.984100 5.348090 -0.000007 -0.000001 -54.349500 19.591300 -48.190700 24.328600 0.000019 0.000005 3.518640 -1.964010 -119.134000 22.291600 -0.000001 0.000005 -0.106661 5.414860 -3.426780 12.994500 -0.242716 -4.980390 91.275300 -3.990430 -72.259800 -5.348130 -0.000001 -0.000004 -69.026700 39.711100 40.657000 -24.328900 0.000322 -0.000009 -12.126200 -2.238970 -79.692900 -22.291500 -0.000108 -0.000004 20.088900 5.644720 -14.529800 -2.192480 -6.469440 -0.000000 -172.226000 -15.381200 8.577140 39.081100 -0.000007 -0.000012 -0.009676 0.039890 13.633700 40.985400 -0.000006 -0.000013 2.826800 7.793630 -63.322800 11.754300 -0.000000 0.000003 -0.014612 -0.135370 -22.099300 -2.192510 6.469440 -0.000001 -173.905000 13.524900 149.158000 -39.081100 -0.002282 -0.040193 0.019004 -0.020846 37.016600 -40.985400 0.000008 0.000006 1.148490 7.353390 -57.852200 -11.754300 -0.000006 -0.000006 -0.025989 -0.198457 -24.694500
